# xmcd CD database file
#
# Track frame offsets:
#	150
#	31068
#	56707
#	76633
#	101298
#	125764
#	146677
#	162445
#	196883
#	217561
#	250690
#	267362
#
# Disc length: 3900 seconds
#
# Revision: 0
# Processed by: cddbd v1.5.1PL0 Copyright (c) Steve Scherf et al.
# Submitted via: CDex 1.51
#
DISCID=980f3a0c
DTITLE=Varios - Coleccion De Oro De La Salsa disco 2
DYEAR=2003
DGENRE=Salsa
TTITLE0=El Gran Baron-Willie Colon
TTITLE1=Entre La Espada Y La Pared-Nino Segarra
TTITLE2=De Punta A Punta-Grupo Caneo
TTITLE3=Nino Majadero-Lisandro Meza
TTITLE4=Mi Gente-Hector Lavoe
TTITLE5=Mi Cuerpo-Oquestra Dan Den de Cuba
TTITLE6=Propiedad Privada-Antonio Cartagena
TTITLE7=Juanito Alimana-Hector Lavoe
TTITLE8=Tan Enamorados-Luis Castro
TTITLE9=Pedro Navaja-Ruben Blades
TTITLE10=Mi Vecina-Grupo Gale
TTITLE11=Azuquita Mami-Fania all Stars
EXTD=YEAR: 2003
EXTT0=
EXTT1=
EXTT2=
EXTT3=
EXTT4=
EXTT5=
EXTT6=
EXTT7=
EXTT8=
EXTT9=
EXTT10=
EXTT11=
PLAYORDER=
